<svg xmlns="http://www.w3.org/2000/svg" xmlns:xlink="http://www.w3.org/1999/xlink" id="Layer_1" width="512" height="512" x="0" y="0" enable-background="new 0 0 512 512" version="1.0" viewBox="0 0 512 512" xml:space="preserve"><g><defs><rect id="SVGID_1_" width="512" height="512"/></defs><clipPath id="SVGID_2_"><use overflow="visible" xlink:href="#SVGID_1_"/></clipPath><path fill="#FCE0E1" d="M409.305,106.372l-74.158-8.853c-24.133-9.606-50.833-14.989-78.954-14.989 c-27.815,0-54.242,5.261-78.163,14.669l-76.834,9.173c-28.983,3.46-49.668,29.752-46.21,58.737l2.585,21.649l5.815,48.693 c-0.892,6.742-1.403,13.59-1.403,20.549c0,95.81,86.948,173.47,194.21,173.47c107.258,0,194.21-77.66,194.21-173.47 c0-9.365-0.858-18.55-2.456-27.513l4.982-41.729l2.585-21.649C458.973,136.124,438.287,109.832,409.305,106.372" clip-path="url(#SVGID_2_)"/><path fill="#BB6F47" d="M135.445,329.536c0,14.535-11.785,26.324-26.324,26.324 c-14.539,0-26.324-11.789-26.324-26.324c0-14.539,11.785-26.324,26.324-26.324C123.66,303.212,135.445,314.997,135.445,329.536" clip-path="url(#SVGID_2_)" opacity=".32"/><path fill="#BB6F47" d="M434.516,325.993c0,14.536-11.788,26.324-26.327,26.324 c-14.535,0-26.324-11.788-26.324-26.324c0-14.539,11.789-26.324,26.324-26.324C422.728,299.669,434.516,311.454,434.516,325.993" clip-path="url(#SVGID_2_)" opacity=".32"/><path fill="#E9B898" d="M327.844,339.906c0,26.553-21.525,48.081-48.082,48.081h-39.596 c-26.556,0-48.081-21.528-48.081-48.081c0-26.552,21.525-48.081,48.081-48.081h39.596 C306.318,291.825,327.844,313.354,327.844,339.906" clip-path="url(#SVGID_2_)"/><path fill="#0F1210" d="M237.337,361.59c-3.125,0-5.657-2.533-5.657-5.656v-30.169 c0-3.123,2.532-5.656,5.657-5.656s5.657,2.533,5.657,5.656v30.169C242.995,359.057,240.462,361.59,237.337,361.59" clip-path="url(#SVGID_2_)"/><path fill="#0F1210" d="M280.705,361.59c-3.123,0-5.657-2.533-5.657-5.656v-30.169 c0-3.123,2.534-5.656,5.657-5.656s5.656,2.533,5.656,5.656v30.169C286.361,359.057,283.828,361.59,280.705,361.59" clip-path="url(#SVGID_2_)"/><path fill="#010101" d="M402.447,301.968c0,6.12-4.961,11.085-11.085,11.085 c-6.12,0-11.081-4.965-11.081-11.085c0-6.121,4.961-11.085,11.081-11.085C397.486,290.883,402.447,295.847,402.447,301.968" clip-path="url(#SVGID_2_)"/><path fill="#010101" d="M135.699,301.968c0,6.12-4.96,11.085-11.085,11.085 c-6.121,0-11.081-4.965-11.081-11.085c0-6.121,4.96-11.085,11.081-11.085C130.739,290.883,135.699,295.847,135.699,301.968" clip-path="url(#SVGID_2_)"/><path fill="#EDBFB7" d="M393.277,122.399l-18.288-2.182l61.913,82.568l2.585-21.649 C442.945,152.151,422.26,125.859,393.277,122.399" clip-path="url(#SVGID_2_)"/><path fill="#EDBFB7" d="M73.679,181.136l2.585,21.649l61.914-82.568l-18.289,2.182 C90.907,125.859,70.221,152.152,73.679,181.136" clip-path="url(#SVGID_2_)"/><path fill="#010101" d="M438.229,306.858c-1.555,0-3.116-0.472-4.46-1.463L169.512,111.33 c-3.359-2.466-4.08-7.185-1.615-10.542c2.462-3.357,7.188-4.082,10.542-1.615l264.257,194.067c3.358,2.468,4.08,7.185,1.617,10.54 C442.832,305.794,440.545,306.858,438.229,306.858" clip-path="url(#SVGID_2_)"/><path fill="#010101" d="M339.102,260.242c0,31.995,25.938,57.929,57.929,57.929 c19.083,0,36.01-9.236,46.563-23.474l-93.371-68.567C343.236,235.699,339.102,247.487,339.102,260.242" clip-path="url(#SVGID_2_)"/></g></svg>